<svg xmlns="http://www.w3.org/2000/svg" xmlns:xlink="http://www.w3.org/1999/xlink" xmlns:lucid="lucid" width="1980" height="1000"><g transform="translate(5860 2080)" lucid:page-tab-id="BbKBbLNXprkp"><path d="M-5760-2058c0-1.1.9-2 2-2h1856c1.1 0 2 .9 2 2v956c0 1.1-.9 2-2 2h-1856c-1.1 0-2-.9-2-2z" fill="#f6f6f6"/><path d="M-5719.8-2016.16l-5.03 8.95h-13.2c-1.22 0-2.25-.63-2.86-1.7l-10.65-19.03c-.6-1.07-.6-2.3 0-3.35l4.06-7.24 5.03 8.93 7.53 13.44z" stroke="#000" stroke-opacity="0" fill="#fbbc05"/><path d="M-5703.16-2027.92l-10.7 19.04c-.58 1.07-1.62 1.68-2.82 1.68h-8.16l5.04-8.96 7.57-13.44-7.57-13.44h10.02l6.62 11.76c.6 1.07.6 2.3 0 3.36z" stroke="#000" stroke-opacity="0" fill="#ea4335"/><path d="M-5709.77-2043.04h-25.16l-7.54 13.44-5.02-8.92 6.6-11.8c.6-1.08 1.67-1.68 2.88-1.68h21.35c1.2 0 2.22.6 2.83 1.68z" stroke="#000" stroke-opacity="0" fill="#4285f4"/><path d="M-5719.8-2043.04l7.55 13.44-7.56 13.44h-15.12l-7.56-13.44 7.56-13.44h15.1" stroke="#000" stroke-opacity="0" fill="#e0e0e0"/><path d="M-5720.8-2029.6c0 3.7-2.94 6.72-6.56 6.72-3.63 0-6.57-3-6.57-6.72 0-3.7 2.94-6.72 6.57-6.72 3.62 0 6.57 3 6.57 6.72z" stroke="#000" stroke-opacity="0" fill="#fff"/><use xlink:href="#a" transform="matrix(1,0,0,1,-5688,-2044) translate(0 16.69921875)"/><path d="M-5712-1998c0-1.1.9-2 2-2h1768c1.1 0 2 .9 2 2v856c0 1.1-.9 2-2 2h-1768c-1.1 0-2-.9-2-2z" fill="#eceff1"/><use xlink:href="#b" transform="matrix(1,0,0,1,-5696,-1984) translate(0 16.69921875)"/><path d="M-5640-1507.12c0-1.1.9-2 2-2h1636c1.1 0 2 .9 2 2v336c0 1.1-.9 2-2 2h-1636c-1.1 0-2-.9-2-2z" fill="#fff3e0"/><use xlink:href="#c" transform="matrix(1,0,0,1,-5624,-1493.1200067019674) translate(0 16.69921875)"/><path d="M-5640-1958c0-1.1.9-2 2-2h1636c1.1 0 2 .9 2 2v336c0 1.1-.9 2-2 2h-1636c-1.1 0-2-.9-2-2z" fill="#fff3e0"/><use xlink:href="#c" transform="matrix(1,0,0,1,-5624,-1944) translate(0 16.69921875)"/><path d="M-5560-1941.84c0-1.1.9-2 2-2h376c1.1 0 2 .9 2 2V-1222c0 1.1-.9 2-2 2h-376c-1.1 0-2-.9-2-2z" fill="#e3f2fd"/><path d="M-5503.3-1915.72l-10.16-17.83c-.8-1.44-2.17-2.24-3.8-2.3h-20.2c-1.63.06-3 .86-3.8 2.3l-10.15 17.78c-.8 1.4-.8 3 0 4.44l10.14 17.92c.8 1.47 2.12 2.32 3.8 2.36h20.2c1.63-.04 3-.9 3.8-2.37l10.15-17.8c.78-1.47.78-3.1 0-4.52z" stroke="#000" stroke-opacity="0" fill="#4285f4"/><path d="M-5525.8-1922.7l-1.53-.3-1.58 3.4 1.33 1.34-.38 2.2 2.22 2.22-5.98.63-1.8-1.8-3.05 3.13 20.42 20.67c1.2-.38 2.07-1.1 2.7-2.2l6.05-10.7z" stroke="#000" stroke-opacity="0" fill-opacity=".07"/><path d="M-5525.17-1921.2c0 1.23-.98 2.22-2.2 2.22-1.2 0-2.18-1-2.18-2.2 0-1.24.98-2.23 2.2-2.23 1.2 0 2.18.98 2.18 2.2zM-5525.17-1905.68c0 1.22-.98 2.2-2.2 2.2-1.2 0-2.18-.98-2.18-2.2 0-1.23.98-2.22 2.2-2.22 1.2 0 2.18 1 2.18 2.22zM-5532.83-1913.44c0 1.23-.98 2.22-2.2 2.22-1.2 0-2.18-1-2.18-2.22 0-1.22.97-2.2 2.18-2.2 1.2 0 2.2.98 2.2 2.2zM-5517.5-1913.44c0 1.23-1 2.22-2.2 2.22-1.2 0-2.2-1-2.2-2.22 0-1.22 1-2.2 2.2-2.2 1.2 0 2.2.98 2.2 2.2z" stroke="#000" stroke-opacity="0" fill="#fff"/><path d="M-5527.92-1905.08l-9.04-9.07h15.38l-6.34-6.43 1.12-1.2 9.04 9.05h-15.38l6.34 6.45-1.12 1.2z" stroke="#000" stroke-opacity="0" fill="#fff"/><path d="M-5527.94-1910.8h.95v5.24h-.94v-5.25zM-5527.94-1921.32h.95v5.25h-.94v-5.25z" stroke="#000" stroke-opacity="0" fill="#fff"/><use xlink:href="#d" transform="matrix(1,0,0,1,-5488,-1927.8362381355068) translate(0 16.69921875)"/><path d="M-5000-1941.03c0-1.1.9-2 2-2h376c1.1 0 2 .9 2 2v737.63c0 1.1-.9 2-2 2h-376c-1.1 0-2-.9-2-2z" fill="#e3f2fd"/><path d="M-4943.3-1914.92l-10.16-17.83c-.8-1.43-2.17-2.24-3.8-2.28h-20.2c-1.63.04-3 .85-3.8 2.28l-10.15 17.8c-.8 1.38-.8 3 0 4.43l10.14 17.92c.8 1.47 2.12 2.32 3.8 2.37h20.2c1.63-.05 3-.9 3.8-2.37l10.15-17.8c.78-1.47.78-3.08 0-4.52z" stroke="#000" stroke-opacity="0" fill="#4285f4"/><path d="M-4965.8-1921.9l-1.53-.3-1.58 3.4 1.33 1.34-.38 2.2 2.22 2.22-5.98.64-1.8-1.78-3.05 3.12 20.42 20.67c1.2-.38 2.07-1.1 2.7-2.2l6.05-10.7z" stroke="#000" stroke-opacity="0" fill-opacity=".07"/><path d="M-4965.17-1920.4c0 1.24-.98 2.23-2.2 2.23-1.2 0-2.18-1-2.18-2.22 0-1.2.98-2.2 2.2-2.2 1.2 0 2.18 1 2.18 2.2zM-4965.17-1904.88c0 1.23-.98 2.22-2.2 2.22-1.2 0-2.18-1-2.18-2.22 0-1.22.98-2.2 2.2-2.2 1.2 0 2.18.98 2.18 2.2zM-4972.83-1912.63c0 1.22-.98 2.2-2.2 2.2-1.2 0-2.18-.98-2.18-2.2 0-1.23.97-2.22 2.18-2.22 1.2 0 2.2 1 2.2 2.22zM-4957.5-1912.63c0 1.22-1 2.2-2.2 2.2-1.2 0-2.2-.98-2.2-2.2 0-1.23 1-2.22 2.2-2.22 1.2 0 2.2 1 2.2 2.22z" stroke="#000" stroke-opacity="0" fill="#fff"/><path d="M-4967.92-1904.27l-9.04-9.07h15.38l-6.34-6.43 1.12-1.2 9.04 9.05h-15.38l6.34 6.45-1.12 1.2z" stroke="#000" stroke-opacity="0" fill="#fff"/><path d="M-4967.94-1910h.95v5.25h-.94v-5.26zM-4967.94-1920.5h.95v5.24h-.94v-5.25z" stroke="#000" stroke-opacity="0" fill="#fff"/><use xlink:href="#e" transform="matrix(1,0,0,1,-4928,-1927.0302765850552) translate(0 16.69921875)"/><path d="M-4440-1941.84c0-1.1.9-2 2-2h376c1.1 0 2 .9 2 2v737.64c0 1.1-.9 2-2 2h-376c-1.1 0-2-.9-2-2z" fill="#e3f2fd"/><path d="M-4383.3-1915.72l-10.16-17.83c-.8-1.44-2.17-2.24-3.8-2.3h-20.2c-1.63.06-3 .86-3.8 2.3l-10.15 17.78c-.8 1.4-.8 3 0 4.44l10.14 17.92c.8 1.47 2.12 2.32 3.8 2.36h20.2c1.63-.04 3-.9 3.8-2.37l10.15-17.8c.78-1.47.78-3.1 0-4.52z" stroke="#000" stroke-opacity="0" fill="#4285f4"/><path d="M-4405.8-1922.7l-1.53-.3-1.58 3.4 1.33 1.34-.38 2.2 2.22 2.22-5.98.63-1.8-1.8-3.05 3.13 20.42 20.67c1.2-.38 2.07-1.1 2.7-2.2l6.05-10.7z" stroke="#000" stroke-opacity="0" fill-opacity=".07"/><path d="M-4405.17-1921.2c0 1.23-.98 2.22-2.2 2.22-1.2 0-2.18-1-2.18-2.2 0-1.24.98-2.23 2.2-2.23 1.2 0 2.18.98 2.18 2.2zM-4405.17-1905.68c0 1.22-.98 2.2-2.2 2.2-1.2 0-2.18-.98-2.18-2.2 0-1.23.98-2.22 2.2-2.22 1.2 0 2.18 1 2.18 2.22zM-4412.83-1913.44c0 1.23-.98 2.22-2.2 2.22-1.2 0-2.18-1-2.18-2.22 0-1.22.97-2.2 2.18-2.2 1.2 0 2.2.98 2.2 2.2zM-4397.5-1913.44c0 1.23-1 2.22-2.2 2.22-1.2 0-2.2-1-2.2-2.22 0-1.22 1-2.2 2.2-2.2 1.2 0 2.2.98 2.2 2.2z" stroke="#000" stroke-opacity="0" fill="#fff"/><path d="M-4407.92-1905.08l-9.04-9.07h15.38l-6.34-6.43 1.12-1.2 9.04 9.05h-15.38l6.34 6.45-1.12 1.2z" stroke="#000" stroke-opacity="0" fill="#fff"/><path d="M-4407.94-1910.8h.95v5.24h-.94v-5.25zM-4407.94-1921.32h.95v5.25h-.94v-5.25z" stroke="#000" stroke-opacity="0" fill="#fff"/><use xlink:href="#f" transform="matrix(1,0,0,1,-4368,-1927.8362381355068) translate(0 16.69921875)"/><path d="M-5313.54-1798.83l-26.36-45.3c-2.05-3.63-5.64-5.68-9.86-5.8h-52.48c-4.22.12-7.8 2.17-9.86 5.8l-26.36 45.18c-2.05 3.53-2.05 7.63 0 11.27l26.36 45.5c2.05 3.77 5.5 5.93 9.86 6.04h52.48c4.22-.1 7.8-2.27 9.86-6.03l26.36-45.17c2.05-3.76 2.05-7.85 0-11.5z" stroke="#000" stroke-opacity="0" fill="#4285f4"/><path d="M-5321.13-1774.45l-43.25-42.83-3.1 6.65-6.75-6.65-3.1 6.65-6.66-6.65-1.65 8.03-5.96.97-1.2 5.2-7.7 1.86 6.9 6.8-6.82 2.93 6.83 6.75-6.9 3 46.12 45.6h4.68c4.2-.18 7.78-2.3 9.84-6.02z" stroke="#000" stroke-opacity="0" fill-opacity=".07"/><path d="M-5370.18-1799.87h-11.4c-.67 0-1.2.53-1.2 1.2v11.3c0 .64.53 1.2 1.2 1.2h11.4c.66-.04 1.17-.57 1.17-1.2v-11.3c0-.67-.55-1.2-1.22-1.2" stroke="#000" stroke-opacity="0" fill="#fff"/><path d="M-5352.12-1800.8c.6 0 1.1-.44 1.1-1.08v-1.72c0-.6-.5-1.08-1.1-1.08h-5.56v-5.17c0-.7-.55-1.23-1.2-1.23h-5.2v-5.46c0-.6-.5-1.08-1.1-1.08h-1.8c-.6 0-1.04.5-1.04 1.08v5.5h-5.86v-5.5c-.05-.6-.55-1.08-1.15-1.08h-1.73c-.6 0-1.1.5-1.1 1.08v5.5h-5.86v-5.5c0-.6-.5-1.08-1.1-1.08h-1.73c-.65 0-1.1.5-1.1 1.08v5.5h-5.22c-.64 0-1.2.5-1.2 1.2v5.1h-5.55c-.6 0-1.1.5-1.1 1.1v1.76c0 .6.5 1.08 1.1 1.08h5.56v5.75h-5.56c-.6 0-1.1.5-1.1 1.1v1.8c0 .6.5 1.1 1.1 1.1h5.56v5.8h-5.56c-.6 0-1.1.48-1.1 1.07v1.77c0 .58.5 1.02 1.1 1.02h5.56v5.17c0 .63.5 1.17 1.2 1.17h5.2v5.5c0 .6.46 1.1 1.1 1.1h1.74c.6 0 1.1-.5 1.1-1.1v-5.5h5.86v5.5c0 .6.5 1.1 1.1 1.1h1.73c.6 0 1.1-.5 1.1-1.1v-5.5h5.9v5.5c0 .6.5 1.1 1.1 1.1h1.8c.6 0 1.1-.5 1.1-1.1v-5.5h5.2c.65-.05 1.15-.54 1.15-1.18v-5.18h5.56c.6 0 1.1-.5 1.1-1.08v-1.72c0-.64-.5-1.08-1.1-1.08h-5.56v-5.8h5.56c.6 0 1.1-.5 1.1-1.1v-1.76-.04c0-.6-.5-1.1-1.1-1.1h-5.56v-5.74h5.56zm-9.64 21.78h-28.22V-1807h28.22z" stroke="#000" stroke-opacity="0" fill="#fff"/><use xlink:href="#g" transform="matrix(1,0,0,1,-5440,-1731.1352765850552) translate(27.549999999999997 14.4)"/><use xlink:href="#h" transform="matrix(1,0,0,1,-5440,-1731.1352765850552) translate(36.025 36)"/><path d="M-5313.54-1328.9l-26.36-45.3c-2.05-3.64-5.64-5.7-9.86-5.8h-52.48c-4.22.1-7.8 2.16-9.86 5.8l-26.36 45.18c-2.05 3.53-2.05 7.62 0 11.26l26.36 45.52c2.05 3.75 5.5 5.92 9.86 6.03h52.48c4.22-.12 7.8-2.3 9.86-6.04l26.36-45.18c2.05-3.75 2.05-7.85 0-11.5z" stroke="#000" stroke-opacity="0" fill="#4285f4"/><path d="M-5321.13-1304.53l-43.25-42.83-3.1 6.66-6.75-6.66-3.1 6.66-6.66-6.66-1.65 8.03-5.96.98-1.2 5.2-7.7 1.86 6.9 6.82-6.82 2.92 6.83 6.73-6.9 3 46.12 45.6h4.68c4.2-.17 7.78-2.28 9.84-6z" stroke="#000" stroke-opacity="0" fill-opacity=".07"/><path d="M-5370.18-1329.95h-11.4c-.67 0-1.2.54-1.2 1.2v11.3c0 .65.53 1.2 1.2 1.2h11.4c.66-.03 1.17-.57 1.17-1.2v-11.3c0-.66-.55-1.2-1.22-1.2" stroke="#000" stroke-opacity="0" fill="#fff"/><path d="M-5352.12-1330.87c.6 0 1.1-.45 1.1-1.1v-1.7c0-.6-.5-1.1-1.1-1.1h-5.56v-5.15c0-.7-.55-1.23-1.2-1.23h-5.2v-5.46c0-.6-.5-1.1-1.1-1.1h-1.8c-.6 0-1.04.5-1.04 1.1v5.5h-5.86v-5.5c-.05-.6-.55-1.1-1.15-1.1h-1.73c-.6 0-1.1.5-1.1 1.1v5.5h-5.86v-5.5c0-.6-.5-1.1-1.1-1.1h-1.73c-.65 0-1.1.5-1.1 1.1v5.5h-5.22c-.64 0-1.2.5-1.2 1.18v5.1h-5.55c-.6 0-1.1.5-1.1 1.1v1.76c0 .6.5 1.1 1.1 1.1h5.56v5.74h-5.56c-.6 0-1.1.5-1.1 1.08v1.82c0 .6.5 1.08 1.1 1.08h5.56v5.8h-5.56c-.6 0-1.1.5-1.1 1.1v1.76c0 .6.5 1.03 1.1 1.03h5.56v5.16c0 .65.5 1.2 1.2 1.2h5.2v5.5c0 .6.46 1.08 1.1 1.08h1.74c.6 0 1.1-.5 1.1-1.08v-5.5h5.86v5.5c0 .6.5 1.08 1.1 1.08h1.73c.6 0 1.1-.5 1.1-1.08v-5.5h5.9v5.5c0 .6.5 1.08 1.1 1.08h1.8c.6 0 1.1-.5 1.1-1.08v-5.5h5.2c.65-.06 1.15-.55 1.15-1.2v-5.15h5.56c.6 0 1.1-.5 1.1-1.08v-1.72c0-.64-.5-1.1-1.1-1.1h-5.56v-5.8h5.56c.6 0 1.1-.48 1.1-1.07v-1.77-.04c0-.6-.5-1.08-1.1-1.08h-5.56v-5.75h5.56zm-9.64 21.78h-28.22v-27.97h28.22z" stroke="#000" stroke-opacity="0" fill="#fff"/><use xlink:href="#g" transform="matrix(1,0,0,1,-5440,-1261.21) translate(27.549999999999997 14.4)"/><use xlink:href="#h" transform="matrix(1,0,0,1,-5440,-1261.21) translate(36.025 36)"/><path d="M-4727.54-1798.83l-26.36-45.3c-2.05-3.63-5.64-5.68-9.86-5.8h-52.48c-4.22.12-7.8 2.17-9.86 5.8l-26.36 45.18c-2.05 3.53-2.05 7.63 0 11.27l26.36 45.5c2.05 3.77 5.5 5.93 9.86 6.04h52.48c4.22-.1 7.8-2.27 9.86-6.03l26.36-45.17c2.05-3.76 2.05-7.85 0-11.5z" stroke="#000" stroke-opacity="0" fill="#4285f4"/><path d="M-4735.13-1774.45l-43.25-42.83-3.1 6.65-6.75-6.65-3.1 6.65-6.66-6.65-1.65 8.03-5.96.97-1.2 5.2-7.7 1.86 6.9 6.8-6.82 2.93 6.83 6.75-6.9 3 46.12 45.6h4.68c4.2-.18 7.78-2.3 9.84-6.02z" stroke="#000" stroke-opacity="0" fill-opacity=".07"/><path d="M-4784.18-1799.87h-11.4c-.67 0-1.2.53-1.2 1.2v11.3c0 .64.53 1.2 1.2 1.2h11.4c.66-.04 1.17-.57 1.17-1.2v-11.3c0-.67-.55-1.2-1.22-1.2" stroke="#000" stroke-opacity="0" fill="#fff"/><path d="M-4766.12-1800.8c.6 0 1.1-.44 1.1-1.08v-1.72c0-.6-.5-1.08-1.1-1.08h-5.56v-5.17c0-.7-.55-1.23-1.2-1.23h-5.2v-5.46c0-.6-.5-1.08-1.1-1.08h-1.8c-.6 0-1.04.5-1.04 1.08v5.5h-5.86v-5.5c-.05-.6-.55-1.08-1.15-1.08h-1.73c-.6 0-1.1.5-1.1 1.08v5.5h-5.86v-5.5c0-.6-.5-1.08-1.1-1.08h-1.73c-.65 0-1.1.5-1.1 1.08v5.5h-5.22c-.64 0-1.2.5-1.2 1.2v5.1h-5.55c-.6 0-1.1.5-1.1 1.1v1.76c0 .6.5 1.08 1.1 1.08h5.56v5.75h-5.56c-.6 0-1.1.5-1.1 1.1v1.8c0 .6.5 1.1 1.1 1.1h5.56v5.8h-5.56c-.6 0-1.1.48-1.1 1.07v1.77c0 .58.5 1.02 1.1 1.02h5.56v5.17c0 .63.5 1.17 1.2 1.17h5.2v5.5c0 .6.46 1.1 1.1 1.1h1.74c.6 0 1.1-.5 1.1-1.1v-5.5h5.86v5.5c0 .6.5 1.1 1.1 1.1h1.73c.6 0 1.1-.5 1.1-1.1v-5.5h5.9v5.5c0 .6.5 1.1 1.1 1.1h1.8c.6 0 1.1-.5 1.1-1.1v-5.5h5.2c.65-.05 1.15-.54 1.15-1.18v-5.18h5.56c.6 0 1.1-.5 1.1-1.08v-1.72c0-.64-.5-1.08-1.1-1.08h-5.56v-5.8h5.56c.6 0 1.1-.5 1.1-1.1v-1.76-.04c0-.6-.5-1.1-1.1-1.1h-5.56v-5.74h5.56zm-9.64 21.78h-28.22V-1807h28.22z" stroke="#000" stroke-opacity="0" fill="#fff"/><use xlink:href="#g" transform="matrix(1,0,0,1,-4854,-1731.1352765850552) translate(27.549999999999997 14.4)"/><use xlink:href="#h" transform="matrix(1,0,0,1,-4854,-1731.1352765850552) translate(36.025 36)"/><path d="M-4727.54-1342.06l-26.36-45.3c-2.05-3.63-5.64-5.68-9.86-5.8h-52.48c-4.22.12-7.8 2.17-9.86 5.8l-26.36 45.18c-2.05 3.53-2.05 7.63 0 11.27l26.36 45.5c2.05 3.76 5.5 5.92 9.86 6.04h52.48c4.22-.12 7.8-2.28 9.86-6.03l26.36-45.17c2.05-3.75 2.05-7.85 0-11.5z" stroke="#000" stroke-opacity="0" fill="#4285f4"/><path d="M-4735.13-1317.68l-43.25-42.83-3.1 6.64-6.75-6.65-3.1 6.64-6.66-6.65-1.65 8.02-5.96.97-1.2 5.2-7.7 1.85 6.9 6.82-6.82 2.92 6.83 6.72-6.9 3 46.12 45.6h4.68c4.2-.18 7.78-2.28 9.84-6.02z" stroke="#000" stroke-opacity="0" fill-opacity=".07"/><path d="M-4784.18-1343.1h-11.4c-.67 0-1.2.54-1.2 1.2v11.3c0 .64.53 1.2 1.2 1.2h11.4c.66-.04 1.17-.57 1.17-1.2v-11.3c0-.66-.55-1.2-1.22-1.2" stroke="#000" stroke-opacity="0" fill="#fff"/><path d="M-4766.12-1344.03c.6 0 1.1-.44 1.1-1.08v-1.73c0-.6-.5-1.08-1.1-1.08h-5.56v-5.18c0-.68-.55-1.23-1.2-1.23h-5.2v-5.46c0-.6-.5-1.1-1.1-1.1h-1.8c-.6 0-1.04.5-1.04 1.1v5.5h-5.86v-5.5c-.05-.6-.55-1.1-1.15-1.1h-1.73c-.6 0-1.1.5-1.1 1.1v5.5h-5.86v-5.5c0-.6-.5-1.1-1.1-1.1h-1.73c-.65 0-1.1.5-1.1 1.1v5.5h-5.22c-.64 0-1.2.5-1.2 1.18v5.12h-5.55c-.6 0-1.1.5-1.1 1.08v1.77c0 .58.5 1.07 1.1 1.07h5.56v5.76h-5.56c-.6 0-1.1.5-1.1 1.08v1.83c0 .6.5 1.08 1.1 1.08h5.56v5.8h-5.56c-.6 0-1.1.5-1.1 1.1v1.76c0 .6.5 1.04 1.1 1.04h5.56v5.16c0 .64.5 1.18 1.2 1.18h5.2v5.5c0 .6.46 1.1 1.1 1.1h1.74c.6 0 1.1-.5 1.1-1.1v-5.5h5.86v5.5c0 .6.5 1.1 1.1 1.1h1.73c.6 0 1.1-.5 1.1-1.1v-5.5h5.9v5.5c0 .6.5 1.1 1.1 1.1h1.8c.6 0 1.1-.5 1.1-1.1v-5.5h5.2c.65-.05 1.15-.54 1.15-1.18v-5.16h5.56c.6 0 1.1-.5 1.1-1.1v-1.7c0-.65-.5-1.1-1.1-1.1h-5.56v-5.8h5.56c.6 0 1.1-.48 1.1-1.07v-1.77-.05c0-.58-.5-1.07-1.1-1.07h-5.56v-5.76h5.56zm-9.64 21.8h-28.22v-28h28.22z" stroke="#000" stroke-opacity="0" fill="#fff"/><use xlink:href="#g" transform="matrix(1,0,0,1,-4854,-1274.363266465888) translate(27.549999999999997 14.4)"/><use xlink:href="#h" transform="matrix(1,0,0,1,-4854,-1274.363266465888) translate(36.025 36)"/><path d="M-4177.54-1798.83l-26.36-45.3c-2.05-3.63-5.64-5.68-9.86-5.8h-52.48c-4.22.12-7.8 2.17-9.86 5.8l-26.36 45.18c-2.05 3.53-2.05 7.63 0 11.27l26.36 45.5c2.05 3.77 5.5 5.93 9.86 6.04h52.48c4.22-.1 7.8-2.27 9.86-6.03l26.36-45.17c2.05-3.76 2.05-7.85 0-11.5z" stroke="#000" stroke-opacity="0" fill="#4285f4"/><path d="M-4220.02-1810.94l-19.34-6.6-20.4 15.3 12.77 12.62-12.84 1.3 12.02 11.88-12.17 1.46 39.23 38.82h7.02c4.23-.17 7.8-2.28 9.83-6.03l19.5-33.5z" stroke="#000" stroke-opacity="0" fill-opacity=".07"/><path d="M-4240-1822.5l-20 11.44v8.84l20 11.4 19.98-11.4v-8.84zm11.95 15.72l-11.96 6.8-11.92-6.8 11.9-6.85 11.97 6.85z" stroke="#000" stroke-opacity="0" fill="#fff"/><path d="M-4260-1797.25v8.83l20 11.43 19.98-11.42v-8.83l-20 11.43-19.97-11.43z" stroke="#000" stroke-opacity="0" fill="#fff"/><path d="M-4260-1783.86v8.84l20 11.42 19.98-11.42v-8.84l-20 11.43-19.97-11.43z" stroke="#000" stroke-opacity="0" fill="#fff"/><path d="M-4177.54-1342.7l-26.36-45.3c-2.05-3.63-5.64-5.68-9.86-5.8h-52.48c-4.22.12-7.8 2.17-9.86 5.8l-26.36 45.2c-2.05 3.52-2.05 7.6 0 11.25l26.36 45.52c2.05 3.75 5.5 5.92 9.86 6.03h52.48c4.22-.1 7.8-2.28 9.86-6.03l26.36-45.18c2.05-3.76 2.05-7.86 0-11.5z" stroke="#000" stroke-opacity="0" fill="#4285f4"/><path d="M-4220.02-1354.8l-19.34-6.6-20.4 15.3 12.77 12.6-12.84 1.32 12.02 11.88-12.17 1.46 39.23 38.8h7.02c4.23-.15 7.8-2.27 9.83-6l19.5-33.53z" stroke="#000" stroke-opacity="0" fill-opacity=".07"/><path d="M-4240-1366.36l-20 11.44v8.83l20 11.42 19.98-11.4v-8.84zm11.95 15.7l-11.96 6.82-11.92-6.8 11.9-6.85 11.97 6.85z" stroke="#000" stroke-opacity="0" fill="#fff"/><path d="M-4260-1341.1v8.82l20 11.43 19.98-11.43v-8.83l-20 11.4-19.97-11.4z" stroke="#000" stroke-opacity="0" fill="#fff"/><path d="M-4260-1327.72v8.83l20 11.44 19.98-11.43v-8.82l-20 11.43-19.97-11.42z" stroke="#000" stroke-opacity="0" fill="#fff"/><use xlink:href="#i" transform="matrix(1,0,0,1,-4304,-1275) translate(20.049999999999997 14.4)"/><use xlink:href="#j" transform="matrix(1,0,0,1,-4304,-1275) translate(71.95 14.4)"/><path d="M-5713.54-1571.82l-26.36-45.3c-2.05-3.63-5.64-5.68-9.86-5.8h-52.48c-4.22.12-7.8 2.17-9.86 5.8l-26.36 45.2c-2.05 3.52-2.05 7.6 0 11.25l26.36 45.52c2.05 3.75 5.5 5.92 9.86 6.03h52.48c4.22-.1 7.8-2.28 9.86-6.03l26.36-45.18c2.05-3.75 2.05-7.85 0-11.5z" stroke="#000" stroke-opacity="0" fill="#4285f4"/><path d="M-5760.36-1587.33l-25.24 7.74-5.83 3.37 8.47 8.3-11.5.7.23 10.7-6.4 7.98 39.8 39.4h11.1c4.23-.16 7.82-2.27 9.9-6.02l19.1-32.9z" stroke="#000" stroke-opacity="0" fill-opacity=".07"/><path d="M-5778-1576.9h4v21.5h-4v-21.5zM-5795.06-1567.02h3.07v12.86h-4v-11.93c0-.5.43-.92.94-.92zM-5760.02-1567.02h3.07c.5 0 .93.4.93.93v11.94h-4v-12.86z" stroke="#000" stroke-opacity="0" fill="#fff"/><path d="M-5795-1569h37.98c.56 0 1 .45 1 1v2.96H-5796v-2.97c0-.55.45-1 1-1zM-5791.03-1587.8h30.05c.64 0 .96.33.96.97v9.95c0 .64-.32.96-.96.96h-30.05c-.64 0-.96-.32-.96-.96v-9.95c0-.64.33-.96.97-.96zM-5800-1558.12h11.03c.65 0 .97.33.97.97v7.96c0 .65-.32.98-.97.98H-5800c-.66 0-1-.33-1-.97v-7.95c0-.64.34-.97 1-.97zM-5763.04-1558.12h11.04c.65 0 .98.33.98.97v7.96c0 .65-.33.98-.98.98h-11.04c-.65 0-.97-.33-.97-.97v-7.95c0-.64.3-.97.96-.97zM-5782-1558.12h11.98c.67 0 1 .34 1 1v7.9c0 .66-.33 1-1 1H-5782c-.66 0-1-.34-1-1v-7.9c0-.66.34-1 1-1z" stroke="#000" stroke-opacity="0" fill="#fff"/><use xlink:href="#k" transform="matrix(1,0,0,1,-5840,-1504.1200067019674) translate(23.200000000000003 14.4)"/><use xlink:href="#l" transform="matrix(1,0,0,1,-5840,-1504.1200067019674) translate(64.8 14.4)"/><use xlink:href="#m" transform="matrix(1,0,0,1,-5840,-1504.1200067019674) translate(24.549999999999997 36)"/><path d="M-5013.54-1571.82l-26.36-45.3c-2.05-3.63-5.64-5.68-9.86-5.8h-52.48c-4.22.12-7.8 2.17-9.86 5.8l-26.36 45.2c-2.05 3.52-2.05 7.6 0 11.25l26.36 45.52c2.05 3.75 5.5 5.92 9.86 6.03h52.48c4.22-.1 7.8-2.28 9.86-6.03l26.36-45.18c2.05-3.75 2.05-7.85 0-11.5z" stroke="#000" stroke-opacity="0" fill="#4285f4"/><path d="M-5060.36-1587.33l-25.24 7.74-5.83 3.37 8.47 8.3-11.5.7.23 10.7-6.4 7.98 39.8 39.4h11.1c4.23-.16 7.82-2.27 9.9-6.02l19.1-32.9z" stroke="#000" stroke-opacity="0" fill-opacity=".07"/><path d="M-5078-1576.9h4v21.5h-4v-21.5zM-5095.06-1567.02h3.07v12.86h-4v-11.93c0-.5.43-.92.94-.92zM-5060.02-1567.02h3.07c.5 0 .93.4.93.93v11.94h-4v-12.86z" stroke="#000" stroke-opacity="0" fill="#fff"/><path d="M-5095-1569h37.98c.56 0 1 .45 1 1v2.96H-5096v-2.97c0-.55.45-1 1-1zM-5091.03-1587.8h30.05c.64 0 .96.33.96.97v9.95c0 .64-.32.96-.96.96h-30.05c-.64 0-.96-.32-.96-.96v-9.95c0-.64.33-.96.97-.96zM-5100-1558.12h11.03c.65 0 .97.33.97.97v7.96c0 .65-.32.98-.97.98H-5100c-.66 0-1-.33-1-.97v-7.95c0-.64.34-.97 1-.97zM-5063.04-1558.12h11.04c.65 0 .98.33.98.97v7.96c0 .65-.33.98-.98.98h-11.04c-.65 0-.97-.33-.97-.97v-7.95c0-.64.3-.97.96-.97zM-5082-1558.12h11.98c.67 0 1 .34 1 1v7.9c0 .66-.33 1-1 1H-5082c-.66 0-1-.34-1-1v-7.9c0-.66.34-1 1-1z" stroke="#000" stroke-opacity="0" fill="#fff"/><use xlink:href="#n" transform="matrix(1,0,0,1,-5140,-1504.1200067019674) translate(25.5 14.4)"/><use xlink:href="#l" transform="matrix(1,0,0,1,-5140,-1504.1200067019674) translate(62.5 14.4)"/><use xlink:href="#m" transform="matrix(1,0,0,1,-5140,-1504.1200067019674) translate(24.549999999999997 36)"/><path d="M-5725.37-1593H-5494c2.2 0 4-1.8 4-4v-192.03c0-2.2 1.8-4 4-4h29.66" stroke="#000" fill="none"/><path d="M-5725.35-1592.5h-.22l-.6-1h.82z"/><path d="M-5441.57-1793.03l-14.27 4.64v-9.27z" stroke="#000"/><path d="M-5725.24-1539.42H-5494c2.2 0 4 1.8 4 4v208.32c0 2.2 1.8 4 4 4h29.66" stroke="#000" fill="none"/><path d="M-5725.22-1538.92h-.8l.57-1h.23z"/><path d="M-5441.57-1323.1l-14.27 4.63v-9.27z" stroke="#000"/><path d="M-5311.54-1793.03h86.26c2.2 0 4 1.8 4 4v199.5c0 2.2 1.8 4 4 4h70.37" stroke="#000" fill="none"/><path d="M-5311.53-1792.53h-.57l.1-.87-.02-.13h.5z"/><path d="M-5132.14-1585.54l-14.27 4.64v-9.27z" stroke="#000"/><path d="M-5311.54-1323.1h88.17c2.2 0 4-1.8 4-4v-209.26c0-2.2 1.8-4 4-4h72.28" stroke="#000" fill="none"/><path d="M-5311.53-1322.6h-.57l.1-.87-.02-.13h.5z"/><path d="M-5128.32-1540.36l-14.27 4.63v-9.27z" stroke="#000"/><path d="M-5024-1590.67h80.77c2.2 0 4-1.8 4-4v-194.36c0-2.2 1.8-4 4-4h64.9" stroke="#000" fill="none"/><path d="M-5024-1590.17h-.22l-.58-1h.8z"/><path d="M-4855.57-1793.03l-14.27 4.64v-9.27z" stroke="#000"/><path d="M-5025.1-1539.64h81.32c2.2 0 4 1.8 4 4v195.38c0 2.2 1.8 4 4 4h65.44" stroke="#000" fill="none"/><path d="M-5025.1-1539.14h-.8l.58-1h.22z"/><path d="M-4855.57-1336.26l-14.27 4.64v-9.27z" stroke="#000"/><path d="M-4725.54-1793.03h16.5c2.2 0 4 1.8 4 4V-1594c0 2.2 1.8 4 4 4h425.17c2.2 0 4-1.8 4-4v-127.38" stroke="#000" fill="none"/><path d="M-4725.53-1792.53h-.57l.1-.87-.02-.13h.5z"/><path d="M-4271.87-1736.15l4.63 14.27h-9.27z" stroke="#000"/><path d="M-4725.54-1336.26h16.5c2.2 0 4-1.8 4-4V-1536c0-2.2 1.8-4 4-4h488.9c2.2 0 4-1.8 4-4v-177.4" stroke="#000" fill="none"/><path d="M-4725.53-1335.76h-.57l.1-.87-.02-.13h.5z"/><path d="M-4208.14-1736.17l4.64 14.27h-9.27z" stroke="#000"/><path d="M-4175.54-1793.03h35.5c2.2 0 4 1.8 4 4v447.5c0 2.22-1.8 4-4 4h-19.62" stroke="#000" fill="none"/><path d="M-4175.53-1792.53h-.57l.1-.87-.02-.13h.5z"/><path d="M-4174.43-1337.52l14.27-4.63v9.27z" stroke="#000"/><defs><path d="M1216-1011c-1 297-202 441-512 441H361V0H169v-1456h537c297-6 510 164 510 445zm-192 2c1-178-126-288-307-289H361v571h345c196 1 318-92 318-282" id="o"/><path d="M663-916c-163-27-288 18-338 148V0H140v-1082h180l3 125c61-97 147-145 258-145 36 0 63 5 82 14v172" id="p"/><path d="M584 20C278 26 81-227 91-551c10-320 175-545 491-551 308-5 503 247 494 573-9 322-175 543-492 549zm-2-970c-208 0-305 185-305 421 0 216 106 398 307 398 211 0 307-186 307-420 0-214-109-399-309-399" id="q"/><path d="M19 279c92 0 127-48 127-150v-1211h185V125c0 208-94 312-283 312-41 0-78-6-113-18V271c21 5 49 8 84 8zm216-1543c-68 0-107-42-108-105 0-61 42-107 108-107 68 0 110 44 110 107s-42 105-110 105" id="r"/><path d="M599-131c141 0 220-65 285-146l113 88C906-50 770 20 589 20 281 21 93-214 93-545c0-223 93-397 233-485 74-48 154-72 240-72 300 2 449 218 445 537v77H278c0 197 129 357 321 357zm227-509c-3-180-88-310-260-310-170 0-264 140-282 310h542" id="s"/><path d="M277-555c0 244 77 420 297 424 127 2 249-93 255-210h175C980-127 805 20 574 20 258 20 81-222 92-562c11-319 164-533 481-540 237-5 426 165 431 392H829c-7-133-115-242-256-240-209 4-296 166-296 395" id="t"/><path d="M456 20C285 20 205-92 206-268v-671H9v-143h197v-262h185v262h202v143H391v671c-9 125 92 149 207 118V0c-49 13-96 20-142 20" id="u"/><g id="a"><use transform="matrix(0.0087890625,0,0,0.0087890625,0,0)" xlink:href="#o"/><use transform="matrix(0.0087890625,0,0,0.0087890625,11.35546875,0)" xlink:href="#p"/><use transform="matrix(0.0087890625,0,0,0.0087890625,17.2705078125,0)" xlink:href="#q"/><use transform="matrix(0.0087890625,0,0,0.0087890625,27.5361328125,0)" xlink:href="#r"/><use transform="matrix(0.0087890625,0,0,0.0087890625,31.833984375,0)" xlink:href="#s"/><use transform="matrix(0.0087890625,0,0,0.0087890625,41.3701171875,0)" xlink:href="#t"/><use transform="matrix(0.0087890625,0,0,0.0087890625,50.7919921875,0)" xlink:href="#u"/></g><path d="M491 20c-241-1-355-148-355-398v-704h185v699c0 164 67 246 200 246 141 0 235-53 282-158v-787h185V0H812l-4-107C736-22 630 20 491 20" id="v"/><path d="M538-131c121 0 232-49 232-156 0-50-20-88-56-117-73-60-334-92-420-143-92-55-162-110-162-238 0-190 192-317 400-317 223 0 414 129 413 338H759c0-108-110-186-227-186-119 0-215 53-215 159 0 45 18 78 53 101 76 52 331 90 416 139 98 57 169 115 169 251C955-92 760 20 538 20c-176 0-314-68-386-174-38-55-57-115-57-179h185c6 129 116 202 258 202" id="w"/><path d="M561-1102c238-4 403 126 403 351v498c0 99 13 178 38 237V0H808c-11-21-19-59-26-114C696-25 593 20 474 20c-199 0-368-130-365-320 4-251 214-359 490-356h180v-85c-1-135-86-212-229-212-115 0-232 67-233 171H131c20-205 206-316 430-320zM294-326c0 117 90 185 207 185 122 0 239-75 278-162v-222H634c-227 0-340 66-340 199" id="x"/><path d="M729 0H543v-1233l-373 137v-168l530-199h29V0" id="y"/><g id="b"><use transform="matrix(0.0087890625,0,0,0.0087890625,0,0)" xlink:href="#v"/><use transform="matrix(0.0087890625,0,0,0.0087890625,9.9228515625,0)" xlink:href="#w"/><use transform="matrix(0.0087890625,0,0,0.0087890625,19.2041015625,0)" xlink:href="#s"/><use transform="matrix(0.0087890625,0,0,0.0087890625,28.740234375,0)" xlink:href="#x"/><use transform="matrix(0.0087890625,0,0,0.0087890625,38.53125,0)" xlink:href="#w"/><use transform="matrix(0.0087890625,0,0,0.0087890625,47.8125,0)" xlink:href="#u"/><use transform="matrix(0.0087890625,0,0,0.0087890625,53.6923828125,0)" xlink:href="#y"/></g><path d="M313-157h833V0H86v-144l798-1154H99v-158h1015v141" id="z"/><path d="M589-945c-131 0-219 81-264 174V0H140v-1082h175l6 136c83-104 191-156 324-156 229 0 346 129 346 387V0H806v-716c-2-153-65-229-217-229" id="A"/><g id="c"><use transform="matrix(0.0087890625,0,0,0.0087890625,0,0)" xlink:href="#z"/><use transform="matrix(0.0087890625,0,0,0.0087890625,10.5908203125,0)" xlink:href="#q"/><use transform="matrix(0.0087890625,0,0,0.0087890625,20.8564453125,0)" xlink:href="#A"/><use transform="matrix(0.0087890625,0,0,0.0087890625,30.7880859375,0)" xlink:href="#s"/></g><path d="M483-459l28 192 41-173 288-1016h162l281 1016 40 176 31-196 226-996h193L1420 0h-175L945-1061l-23-111-23 111L588 0H413L61-1456h192" id="B"/><path d="M634-1102c292 0 422 254 422 573 0 298-143 547-420 549-137 0-242-48-317-145L310 0H140v-1536h185v573c75-93 178-139 309-139zm-44 965c207 0 281-175 281-413 0-224-79-395-283-395-122 0-210 57-263 170v468c57 113 145 170 265 170" id="C"/><path d="M631-137c179 0 314-70 314-231 0-71-25-127-75-166s-141-77-272-115c-165-47-285-106-360-175s-112-154-112-255c0-245 231-397 495-397 206 0 369 89 449 218 43 68 65 142 65 223H942c0-184-129-283-321-283-172 0-299 76-301 236 0 59 26 109 76 150s135 78 256 113c205 59 345 116 436 256 35 53 50 119 50 193-2 256-231 398-507 390C333 12 90-129 80-422h193c0 187 160 285 358 285" id="D"/><g id="d"><use transform="matrix(0.0087890625,0,0,0.0087890625,0,0)" xlink:href="#B"/><use transform="matrix(0.0087890625,0,0,0.0087890625,15.697265625,0)" xlink:href="#s"/><use transform="matrix(0.0087890625,0,0,0.0087890625,25.2333984375,0)" xlink:href="#C"/><use transform="matrix(0.0087890625,0,0,0.0087890625,35.33203125,0)" xlink:href="#D"/><use transform="matrix(0.0087890625,0,0,0.0087890625,46.0107421875,0)" xlink:href="#v"/><use transform="matrix(0.0087890625,0,0,0.0087890625,55.93359375,0)" xlink:href="#C"/><use transform="matrix(0.0087890625,0,0,0.0087890625,66.0322265625,0)" xlink:href="#A"/><use transform="matrix(0.0087890625,0,0,0.0087890625,75.9638671875,0)" xlink:href="#s"/><use transform="matrix(0.0087890625,0,0,0.0087890625,85.5,0)" xlink:href="#u"/></g><path d="M973-380H363L226 0H28l556-1456h168L1309 0h-197zM421-538h495l-248-681" id="E"/><path d="M632-1102c291 0 422 251 422 573 0 297-141 548-419 549-131 0-235-42-310-125v521H140v-1498h169l9 120c75-93 180-140 314-140zm-53 971c207 0 290-180 290-419 0-218-92-395-292-395-112 0-196 50-252 149v517c55 99 140 148 254 148" id="F"/><g id="e"><use transform="matrix(0.0087890625,0,0,0.0087890625,0,0)" xlink:href="#E"/><use transform="matrix(0.0087890625,0,0,0.0087890625,11.7421875,0)" xlink:href="#F"/><use transform="matrix(0.0087890625,0,0,0.0087890625,21.8408203125,0)" xlink:href="#F"/><use transform="matrix(0.0087890625,0,0,0.0087890625,31.939453125,0)" xlink:href="#D"/><use transform="matrix(0.0087890625,0,0,0.0087890625,42.6181640625,0)" xlink:href="#v"/><use transform="matrix(0.0087890625,0,0,0.0087890625,52.541015625,0)" xlink:href="#C"/><use transform="matrix(0.0087890625,0,0,0.0087890625,62.6396484375,0)" xlink:href="#A"/><use transform="matrix(0.0087890625,0,0,0.0087890625,72.5712890625,0)" xlink:href="#s"/><use transform="matrix(0.0087890625,0,0,0.0087890625,82.107421875,0)" xlink:href="#u"/></g><path d="M1222-777c17 480-206 763-650 777H169v-1456h411c408 9 627 269 642 679zm-190 4c3-312-149-522-447-525H361v1141h202c308 0 473-209 469-531v-85" id="G"/><g id="f"><use transform="matrix(0.0087890625,0,0,0.0087890625,0,0)" xlink:href="#G"/><use transform="matrix(0.0087890625,0,0,0.0087890625,11.8037109375,0)" xlink:href="#C"/><use transform="matrix(0.0087890625,0,0,0.0087890625,21.90234375,0)" xlink:href="#D"/><use transform="matrix(0.0087890625,0,0,0.0087890625,32.5810546875,0)" xlink:href="#v"/><use transform="matrix(0.0087890625,0,0,0.0087890625,42.50390625,0)" xlink:href="#C"/><use transform="matrix(0.0087890625,0,0,0.0087890625,52.6025390625,0)" xlink:href="#A"/><use transform="matrix(0.0087890625,0,0,0.0087890625,62.5341796875,0)" xlink:href="#s"/><use transform="matrix(0.0087890625,0,0,0.0087890625,72.0703125,0)" xlink:href="#u"/></g><path fill="#333" d="M212-179c-10-28-35-45-73-45-59 0-87 40-87 99 0 60 29 101 89 101 43 0 62-24 78-52l27 14C228-24 195 4 139 4 59 4 22-46 18-125c-6-104 99-153 187-111 19 9 31 26 39 46" id="H"/><path fill="#333" d="M100-194c62-1 85 37 85 99 1 63-27 99-86 99S16-35 15-95c0-66 28-99 85-99zM99-20c44 1 53-31 53-75 0-43-8-75-51-75s-53 32-53 75 10 74 51 75" id="I"/><path fill="#333" d="M210-169c-67 3-38 105-44 169h-31v-121c0-29-5-50-35-48C34-165 62-65 56 0H25l-1-190h30c1 10-1 24 2 32 10-44 99-50 107 0 11-21 27-35 58-36 85-2 47 119 55 194h-31v-121c0-29-5-49-35-48" id="J"/><path fill="#333" d="M115-194c55 1 70 41 70 98S169 2 115 4C84 4 66-9 55-30l1 105H24l-1-265h31l2 30c10-21 28-34 59-34zm-8 174c40 0 45-34 45-75s-6-73-45-74c-42 0-51 32-51 76 0 43 10 73 51 73" id="K"/><path fill="#333" d="M84 4C-5 8 30-112 23-190h32v120c0 31 7 50 39 49 72-2 45-101 50-169h31l1 190h-30c-1-10 1-25-2-33-11 22-28 36-60 37" id="L"/><path fill="#333" d="M59-47c-2 24 18 29 38 22v24C64 9 27 4 27-40v-127H5v-23h24l9-43h21v43h35v23H59v120" id="M"/><path fill="#333" d="M100-194c63 0 86 42 84 106H49c0 40 14 67 53 68 26 1 43-12 49-29l28 8c-11 28-37 45-77 45C44 4 14-33 15-96c1-61 26-98 85-98zm52 81c6-60-76-77-97-28-3 7-6 17-6 28h103" id="N"/><g id="g"><use transform="matrix(0.05,0,0,0.05,0,0)" xlink:href="#H"/><use transform="matrix(0.05,0,0,0.05,12.950000000000001,0)" xlink:href="#I"/><use transform="matrix(0.05,0,0,0.05,22.950000000000003,0)" xlink:href="#J"/><use transform="matrix(0.05,0,0,0.05,37.900000000000006,0)" xlink:href="#K"/><use transform="matrix(0.05,0,0,0.05,47.900000000000006,0)" xlink:href="#L"/><use transform="matrix(0.05,0,0,0.05,57.900000000000006,0)" xlink:href="#M"/><use transform="matrix(0.05,0,0,0.05,62.900000000000006,0)" xlink:href="#N"/></g><path fill="#333" d="M30 0v-248h187v28H63v79h144v27H63v87h162V0H30" id="O"/><path fill="#333" d="M117-194c89-4 53 116 60 194h-32v-121c0-31-8-49-39-48C34-167 62-67 57 0H25l-1-190h30c1 10-1 24 2 32 11-22 29-35 61-36" id="P"/><path fill="#333" d="M177-190C167-65 218 103 67 71c-23-6-38-20-44-43l32-5c15 47 100 32 89-28v-30C133-14 115 1 83 1 29 1 15-40 15-95c0-56 16-97 71-98 29-1 48 16 59 35 1-10 0-23 2-32h30zM94-22c36 0 50-32 50-73 0-42-14-75-50-75-39 0-46 34-46 75s6 73 46 73" id="Q"/><path fill="#333" d="M24-231v-30h32v30H24zM24 0v-190h32V0H24" id="R"/><g id="h"><use transform="matrix(0.05,0,0,0.05,0,0)" xlink:href="#O"/><use transform="matrix(0.05,0,0,0.05,12,0)" xlink:href="#P"/><use transform="matrix(0.05,0,0,0.05,22,0)" xlink:href="#Q"/><use transform="matrix(0.05,0,0,0.05,32,0)" xlink:href="#R"/><use transform="matrix(0.05,0,0,0.05,35.95,0)" xlink:href="#P"/><use transform="matrix(0.05,0,0,0.05,45.95,0)" xlink:href="#N"/></g><path fill="#333" d="M24 0v-261h32V0H24" id="S"/><path fill="#333" d="M85-194c31 0 48 13 60 33l-1-100h32l1 261h-30c-2-10 0-23-3-31C134-8 116 4 85 4 32 4 16-35 15-94c0-66 23-100 70-100zm9 24c-40 0-46 34-46 75 0 40 6 74 45 74 42 0 51-32 51-76 0-42-9-74-50-73" id="T"/><g id="i"><use transform="matrix(0.05,0,0,0.05,0,0)" xlink:href="#H"/><use transform="matrix(0.05,0,0,0.05,12.950000000000001,0)" xlink:href="#S"/><use transform="matrix(0.05,0,0,0.05,16.900000000000002,0)" xlink:href="#I"/><use transform="matrix(0.05,0,0,0.05,26.900000000000002,0)" xlink:href="#L"/><use transform="matrix(0.05,0,0,0.05,36.900000000000006,0)" xlink:href="#T"/></g><path fill="#333" d="M185-189c-5-48-123-54-124 2 14 75 158 14 163 119 3 78-121 87-175 55-17-10-28-26-33-46l33-7c5 56 141 63 141-1 0-78-155-14-162-118-5-82 145-84 179-34 5 7 8 16 11 25" id="U"/><path fill="#333" d="M140-251c81 0 123 46 123 126C263-53 228-8 163 1c7 30 30 48 69 40v23c-55 16-95-15-103-61C56-3 17-48 17-125c0-80 42-126 123-126zm0 227c63 0 89-41 89-101s-29-99-89-99c-61 0-89 39-89 99S79-25 140-24" id="V"/><path fill="#333" d="M30 0v-248h33v221h125V0H30" id="W"/><g id="j"><use transform="matrix(0.05,0,0,0.05,0,0)" xlink:href="#U"/><use transform="matrix(0.05,0,0,0.05,12,0)" xlink:href="#V"/><use transform="matrix(0.05,0,0,0.05,26,0)" xlink:href="#W"/></g><path fill="#333" d="M266 0h-40l-56-210L115 0H75L2-248h35L96-30l15-64 43-154h32l59 218 59-218h35" id="X"/><path fill="#333" d="M115-194c53 0 69 39 70 98 0 66-23 100-70 100C84 3 66-7 56-30L54 0H23l1-261h32v101c10-23 28-34 59-34zm-8 174c40 0 45-34 45-75 0-40-5-75-45-74-42 0-51 32-51 76 0 43 10 73 51 73" id="Y"/><g id="k"><use transform="matrix(0.05,0,0,0.05,0,0)" xlink:href="#X"/><use transform="matrix(0.05,0,0,0.05,16.599999999999998,0)" xlink:href="#N"/><use transform="matrix(0.05,0,0,0.05,26.599999999999994,0)" xlink:href="#Y"/></g><path fill="#333" d="M141-36C126-15 110 5 73 4 37 3 15-17 15-53c-1-64 63-63 125-63 3-35-9-54-41-54-24 1-41 7-42 31l-33-3c5-37 33-52 76-52 45 0 72 20 72 64v82c-1 20 7 32 28 27v20c-31 9-61-2-59-35zM48-53c0 20 12 33 32 33 41-3 63-29 60-74-43 2-92-5-92 41" id="Z"/><g id="l"><use transform="matrix(0.05,0,0,0.05,0,0)" xlink:href="#W"/><use transform="matrix(0.05,0,0,0.05,10,0)" xlink:href="#I"/><use transform="matrix(0.05,0,0,0.05,20,0)" xlink:href="#Z"/><use transform="matrix(0.05,0,0,0.05,30,0)" xlink:href="#T"/></g><path fill="#333" d="M160-131c35 5 61 23 61 61C221 17 115-2 30 0v-248c76 3 177-17 177 60 0 33-19 50-47 57zm-97-11c50-1 110 9 110-42 0-47-63-36-110-37v79zm0 115c55-2 124 14 124-45 0-56-70-42-124-44v89" id="aa"/><path fill="#333" d="M96-169c-40 0-48 33-48 73s9 75 48 75c24 0 41-14 43-38l32 2c-6 37-31 61-74 61-59 0-76-41-82-99-10-93 101-131 147-64 4 7 5 14 7 22l-32 3c-4-21-16-35-41-35" id="ab"/><g id="m"><use transform="matrix(0.05,0,0,0.05,0,0)" xlink:href="#aa"/><use transform="matrix(0.05,0,0,0.05,12,0)" xlink:href="#Z"/><use transform="matrix(0.05,0,0,0.05,22,0)" xlink:href="#S"/><use transform="matrix(0.05,0,0,0.05,25.950000000000003,0)" xlink:href="#Z"/><use transform="matrix(0.05,0,0,0.05,35.95,0)" xlink:href="#P"/><use transform="matrix(0.05,0,0,0.05,45.95,0)" xlink:href="#ab"/><use transform="matrix(0.05,0,0,0.05,54.95,0)" xlink:href="#R"/><use transform="matrix(0.05,0,0,0.05,58.900000000000006,0)" xlink:href="#P"/><use transform="matrix(0.05,0,0,0.05,68.9,0)" xlink:href="#Q"/></g><path fill="#333" d="M205 0l-28-72H64L36 0H1l101-248h38L239 0h-34zm-38-99l-47-123c-12 45-31 82-46 123h93" id="ac"/><g id="n"><use transform="matrix(0.05,0,0,0.05,0,0)" xlink:href="#ac"/><use transform="matrix(0.05,0,0,0.05,12,0)" xlink:href="#K"/><use transform="matrix(0.05,0,0,0.05,22,0)" xlink:href="#K"/></g></defs></g></svg>